<?xml version="1.0" encoding="utf-8"?>
<!-- Generator: Adobe Illustrator 16.0.0, SVG Export Plug-In . SVG Version: 6.00 Build 0)  -->
<!DOCTYPE svg PUBLIC "-//W3C//DTD SVG 1.1//EN" "http://www.w3.org/Graphics/SVG/1.1/DTD/svg11.dtd">
<svg version="1.1" id="Layer_1" xmlns="http://www.w3.org/2000/svg" xmlns:xlink="http://www.w3.org/1999/xlink" x="0px" y="0px"
	 width="281.36px" height="281.36px" viewBox="0 0 281.36 281.36" enable-background="new 0 0 281.36 281.36" xml:space="preserve">
<g>
	<g>
		
			<text transform="matrix(1 0 0 1 4.3364 203.1445)" fill="#931B1E" font-family="'Garamond'" font-size="50.4859" letter-spacing="2">WELCOME</text>
		<text transform="matrix(1 0 0 1 6.189 242.2305)" font-family="'Garamond'" font-size="37.5105" letter-spacing="1">TO</text>
		
			<text transform="matrix(1 0 0 1 66.9019 252.9893)" fill="#931B1E" font-family="'Garamond'" font-size="55.5383" letter-spacing="2">SPARTA</text>
	</g>
	<g>
		<g>
			<path fill="#231F20" d="M155.032,53.568c0,0,0.694-13.789,8.573-29.405c0,0-21.818-13.304-52.104,0.889l8.045,20.143
				L109.204,27.84c0,0-11.959,6.497-14.963,15.541l14.794,15.503L92.359,45.871c0,0-2.347,2.547-2.372,4.905l7.741,6.074
				l-7.87-4.578c0,0-2.148,3.292-2.183,8.713l7.106,3.957l-7.401-1.784c0,0-2.807,16.224,4.59,36.378
				c1.939,5.287,5.706,13.369,6.89,23.189c0.275,2.302,2.819-3.357,0.038-14.765c-2.782-11.406-4.318-20.376,0.903-30.152
				c5.218-9.776,10.801-14.284,25.083-20.119C139.167,51.852,155.032,53.568,155.032,53.568z"/>
		</g>
		<g>
			<g>
				<path fill="#231F20" d="M168.043,19.604c0,0-0.18-0.126-0.932-0.469c-0.372-0.178-0.783-0.376-1.23-0.591
					c-0.461-0.187-0.96-0.39-1.491-0.606c-1.051-0.47-2.302-0.83-3.649-1.28c-1.348-0.447-2.862-0.725-4.44-1.133
					c-1.608-0.244-3.303-0.555-5.066-0.728c-0.892-0.048-1.796-0.097-2.707-0.147c-0.916-0.049-1.842-0.122-2.776-0.063
					c-0.938,0.034-1.88,0.039-2.823,0.098c-0.948,0.086-1.895,0.174-2.844,0.261c-7.575,0.876-14.923,3.261-20.14,5.631
					c-5.241,2.336-8.441,4.476-8.441,4.476s3.151-2.21,8.358-4.667c5.176-2.487,12.5-5.048,20.141-6.103
					c0.958-0.108,1.915-0.217,2.869-0.325c0.956-0.082,1.909-0.106,2.857-0.162c0.948-0.078,1.892-0.028,2.822,0.002
					c0.932,0.03,1.851,0.062,2.757,0.091c1.801,0.137,3.536,0.414,5.186,0.63c1.614,0.381,3.176,0.632,4.561,1.061
					c1.393,0.428,2.683,0.771,3.774,1.23c0.553,0.212,1.069,0.409,1.548,0.592c0.468,0.212,0.899,0.405,1.286,0.583
					c0.782,0.334,1.369,0.672,1.781,0.881c0.409,0.213,0.631,0.355,0.631,0.355L168.043,19.604z"/>
			</g>
		</g>
		<g>
			<path fill="#231F20" d="M162.675,51.655c0,0,1.598-18.983,10.758-29.504l-9.827,2.013c0,0-7.315,13.625-8.573,29.405
				L162.675,51.655z"/>
		</g>
		<g>
			<g>
				<path fill="#231F20" d="M154.641,65.306c-8.281-3.332-23.951-0.921-24.107-0.896l-0.143-0.915
					c0.654-0.102,16.08-2.477,24.594,0.952L154.641,65.306z"/>
			</g>
		</g>
		<g>
			<path fill="#231F20" d="M153.357,71.689l0.089-7.109c0,0,0.482,0.134,0.768,0.411L153.357,71.689z"/>
		</g>
		<g>
			<path fill="#231F20" d="M151.318,72.252l0.23-8.138c0,0,0.62,0.179,0.892,0.363L151.318,72.252z"/>
		</g>
		<g>
			<path fill="#231F20" d="M169.053,105.392l-5.522,5.68l4.064,33.682c0,0,2.315-4.05,1.284-17.825
				c-1.03-13.774-2.024-14.062-0.708-15.408c1.318-1.346,1.727-1.65,1.727-1.65S169.897,108.214,169.053,105.392z"/>
		</g>
		<g>
			<path fill="#231F20" d="M125.321,62.707c13.632-3.868,27.998-1.987,28.807-1.433l8.869-1.674l-0.6-3.181l-7.287,1.374
				c0,0-19.364-2.232-36.412,4.752c-17.045,6.985-22.629,21.695-19.654,38.087c2.977,16.392,2.871,20.189,1.51,22.327
				c-1.364,2.137,3.518-0.259,3.688-16.008c0.035-3.539,5.733,1.527,6.459,2.431c1.235,1.529,2.478,3.834,3.965,7.256
				c1.931,4.454,2.503,9.536,4.475,22.467l39.004,10.18l-5.853-35.39l-25.503-2.251l-2.312-8.512l34.349-3.892
				c0,0-1.551-10.07-2.869-15.827c-1.323-5.752,1.782,0.724,2.367,3.203c0.586,2.481,2.32,12.279,2.32,12.279l8.962-4.282
				l-0.538-2.842c0,0-5.5,3.278-6.141,3.631c-0.64,0.356,4.351-3.765,4.351-3.765s-1.532-12.199-7.414-19.32
				c-3.283-3.972-4.732-3.876-4.973-3.89l0.911,5.128l-7.539,1.54c0,0-11.208-4.479-25.318-1.579
				c-14.107,2.897-19.829,16.575-20.082,18.035c-0.252,1.462,0.624-11.656,15.763-19.104c15.132-7.451,30.727-0.307,30.727-0.307
				l1.346-8.453c0,0-11.548-1.943-21.532,0.059c-9.981,2.003-17.231,7.257-20.624,10.487
				C105.15,77.464,111.69,66.574,125.321,62.707z M153.614,97.632l-34.873,2.343l4.336,12.994l-7.741-14.394L153.614,97.632z
				 M150.639,140.89l-22.096-4.775l21.521,1.745l-16.397-2.873l16.668,0.151l-2.017-14.847l-16.466-3.241l15.402,0.934
				l-19.381-3.723l21.359,2.56l3.967,27.665l-30.51-6.956L150.639,140.89z"/>
		</g>
	</g>
</g>
</svg>
