<?xml version="1.0" encoding="utf-8"?>
<!-- Generator: Adobe Illustrator 16.0.0, SVG Export Plug-In . SVG Version: 6.00 Build 0)  -->
<!DOCTYPE svg PUBLIC "-//W3C//DTD SVG 1.1//EN" "http://www.w3.org/Graphics/SVG/1.1/DTD/svg11.dtd">
<svg version="1.1" id="Layer_1" xmlns="http://www.w3.org/2000/svg" xmlns:xlink="http://www.w3.org/1999/xlink" x="0px" y="0px"
	 width="226.771px" height="226.771px" viewBox="0 0 226.771 226.771" enable-background="new 0 0 226.771 226.771"
	 xml:space="preserve">
<g>
	<g>
		
			<text transform="matrix(1 0 0 1 4.5771 163.2363)" fill="#931B1E" font-family="'Garamond'" font-size="40.2901" letter-spacing="1">WELCOME</text>
		<text transform="matrix(1 0 0 1 6.0557 194.4287)" font-family="'Garamond'" font-size="29.9352" letter-spacing="1">TO</text>
		
			<text transform="matrix(1 0 0 1 54.5073 203.0146)" fill="#931B1E" font-family="'Garamond'" font-size="44.3222" letter-spacing="1">SPARTA</text>
	</g>
	<g>
		<g>
			<path fill="#231F20" d="M124.839,43.866c0,0,0.554-11.004,6.842-23.466c0,0-17.412-10.618-41.581,0.709l6.42,16.075
				l-8.254-13.851c0,0-9.544,5.185-11.941,12.402l11.807,12.373L74.822,37.723c0,0-1.873,2.033-1.893,3.914l6.178,4.848l-6.28-3.654
				c0,0-1.714,2.627-1.742,6.954l5.671,3.158l-5.906-1.423c0,0-2.24,12.947,3.663,29.031c1.548,4.219,4.554,10.669,5.498,18.506
				c0.22,1.837,2.25-2.679,0.03-11.783c-2.221-9.103-3.446-16.262,0.721-24.063c4.164-7.802,8.62-11.399,20.018-16.056
				C112.178,42.497,124.839,43.866,124.839,43.866z"/>
		</g>
		<g>
			<g>
				<path fill="#231F20" d="M135.222,16.761c0,0-0.144-0.101-0.743-0.374c-0.297-0.142-0.625-0.3-0.982-0.472
					c-0.367-0.149-0.766-0.311-1.189-0.483c-0.839-0.375-1.837-0.662-2.913-1.021c-1.075-0.356-2.284-0.578-3.543-0.904
					c-1.284-0.195-2.636-0.443-4.044-0.581c-0.711-0.039-1.433-0.078-2.16-0.117c-0.73-0.04-1.47-0.098-2.216-0.05
					c-0.748,0.027-1.5,0.031-2.253,0.078c-0.757,0.069-1.512,0.139-2.27,0.208c-6.045,0.7-11.909,2.603-16.072,4.494
					c-4.183,1.864-6.736,3.572-6.736,3.572s2.515-1.764,6.67-3.725c4.131-1.984,9.976-4.028,16.073-4.87
					c0.765-0.086,1.528-0.173,2.29-0.259c0.763-0.065,1.523-0.085,2.28-0.129c0.757-0.062,1.51-0.022,2.252,0.002
					c0.744,0.024,1.478,0.049,2.2,0.072c1.438,0.109,2.822,0.331,4.139,0.503c1.288,0.304,2.534,0.504,3.64,0.847
					c1.111,0.342,2.141,0.615,3.012,0.981c0.441,0.169,0.854,0.326,1.235,0.472c0.373,0.169,0.718,0.323,1.026,0.465
					c0.624,0.267,1.093,0.537,1.422,0.703c0.326,0.17,0.503,0.283,0.503,0.283L135.222,16.761z"/>
			</g>
		</g>
		<g>
			<path fill="#231F20" d="M130.938,42.339c0,0,1.275-15.149,8.586-23.545l-7.843,1.606c0,0-5.838,10.874-6.842,23.466
				L130.938,42.339z"/>
		</g>
		<g>
			<g>
				<path fill="#231F20" d="M124.526,53.233c-6.609-2.659-19.114-0.735-19.239-0.714l-0.113-0.73
					c0.521-0.082,12.832-1.977,19.627,0.76L124.526,53.233z"/>
			</g>
		</g>
		<g>
			<path fill="#231F20" d="M123.502,58.327l0.071-5.673c0,0,0.385,0.106,0.612,0.328L123.502,58.327z"/>
		</g>
		<g>
			<path fill="#231F20" d="M121.875,58.776l0.184-6.494c0,0,0.495,0.143,0.712,0.29L121.875,58.776z"/>
		</g>
		<g>
			<path fill="#231F20" d="M136.027,85.224l-4.407,4.533l3.244,26.879c0,0,1.848-3.232,1.024-14.225
				c-0.822-10.992-1.615-11.222-0.564-12.296c1.052-1.074,1.378-1.317,1.378-1.317S136.702,87.476,136.027,85.224z"/>
		</g>
		<g>
			<path fill="#231F20" d="M101.128,51.159c10.879-3.087,22.344-1.586,22.989-1.144l7.078-1.336l-0.479-2.539l-5.815,1.097
				c0,0-15.454-1.782-29.059,3.792c-13.604,5.575-18.06,17.314-15.686,30.396c2.376,13.082,2.291,16.112,1.205,17.818
				c-1.089,1.706,2.808-0.207,2.943-12.775c0.028-2.824,4.575,1.218,5.155,1.94c0.985,1.22,1.978,3.06,3.164,5.791
				c1.541,3.555,1.998,7.61,3.571,17.93l31.127,8.124l-4.671-28.243L102.3,90.213l-1.845-6.793l27.412-3.106
				c0,0-1.237-8.036-2.29-12.63c-1.056-4.591,1.423,0.578,1.89,2.556c0.468,1.98,1.852,9.799,1.852,9.799l7.152-3.417l-0.43-2.269
				c0,0-4.39,2.616-4.9,2.898c-0.511,0.284,3.472-3.004,3.472-3.004s-1.223-9.735-5.917-15.418c-2.62-3.169-3.776-3.093-3.968-3.104
				l0.727,4.093l-6.017,1.229c0,0-8.944-3.574-20.205-1.26c-11.258,2.312-15.824,13.228-16.026,14.393
				c-0.201,1.167,0.498-9.302,12.579-15.246c12.076-5.946,24.521-0.245,24.521-0.245l1.074-6.746c0,0-9.216-1.55-17.184,0.047
				c-7.966,1.599-13.752,5.792-16.459,8.369C85.03,62.936,90.25,54.246,101.128,51.159z M123.707,79.031l-27.83,1.87l3.46,10.37
				l-6.178-11.487L123.707,79.031z M121.332,113.553l-17.633-3.811l17.175,1.393l-13.086-2.292l13.302,0.121l-1.609-11.848
				l-13.141-2.586l12.292,0.746l-15.467-2.971l17.046,2.043l3.166,22.078l-24.349-5.551L121.332,113.553z"/>
		</g>
	</g>
</g>
</svg>
